<svg xmlns="http://www.w3.org/2000/svg" viewBox="0 0 48 48" fill="none">
  <defs>
    <linearGradient id="tuBg" x1="6" y1="8" x2="42" y2="44" gradientUnits="userSpaceOnUse">
      <stop stop-color="#0b0f1a"/>
      <stop offset="1" stop-color="#14102a"/>
    </linearGradient>
    <linearGradient id="tuStroke" x1="8" y1="10" x2="40" y2="38" gradientUnits="userSpaceOnUse">
      <stop stop-color="#00D4FF"/>
      <stop offset="0.55" stop-color="#FF4FD8"/>
      <stop offset="1" stop-color="#A3FF12"/>
    </linearGradient>
    <radialGradient id="tuGlow" cx="0" cy="0" r="1" gradientUnits="userSpaceOnUse" gradientTransform="translate(24 18) rotate(90) scale(18 22)">
      <stop stop-color="#00D4FF" stop-opacity="0.22"/>
      <stop offset="1" stop-color="#00D4FF" stop-opacity="0"/>
    </radialGradient>
  </defs>
  <rect width="48" height="48" rx="12" fill="url(#tuBg)"/>
  <rect x="1" y="1" width="46" height="46" rx="11" stroke="url(#tuStroke)" stroke-width="1.4" opacity="0.85"/>
  <circle cx="24" cy="18" r="18" fill="url(#tuGlow)"/>
  <path d="M18.2 30.2h10.7c3.1 0 5.6-2.2 5.6-5.1 0-2.6-1.9-4.6-4.4-5-.7-3.1-3.6-5.4-7-5.4-3.8 0-6.9 2.8-7.2 6.3-2.4.5-4.2 2.5-4.2 5 0 2.8 2.4 4.2 4.5 4.2Z" fill="rgba(255,255,255,0.04)" stroke="url(#tuStroke)" stroke-width="2.2" stroke-linejoin="round" stroke-linecap="round"/>
  <path d="M24 30v-9m0 0l-3.2 3.2M24 21l3.2 3.2" stroke="rgba(255,255,255,0.92)" stroke-width="2.6" stroke-linecap="round" stroke-linejoin="round"/>
  <path d="M19.5 31.8h9" stroke="rgba(255,255,255,0.28)" stroke-width="2" stroke-linecap="round"/>
</svg>
